<svg width="24" height="24" viewBox="0 0 24 24" fill="none" xmlns="http://www.w3.org/2000/svg">
<g id="Bold / Essentional, UI / Bed">
<g id="Vector">
<path d="M4.59844 7.19998C4.59844 6.8686 4.32981 6.59998 3.99844 6.59998C3.66707 6.59998 3.39844 6.8686 3.39844 7.19998V16.8C3.39844 17.1313 3.66707 17.4 3.99844 17.4C4.32981 17.4 4.59844 17.1313 4.59844 16.8V15.8H19.3121V16.8001C19.3121 17.1315 19.5807 17.4001 19.9121 17.4001C20.2434 17.4001 20.5121 17.1315 20.5121 16.8001V15.2001L20.5127 14.9143C20.5127 13.3184 20.5127 12.5204 20.2883 11.8789C19.8862 10.73 18.9828 9.82658 17.8338 9.42453C17.1924 9.20006 16.3944 9.20006 14.7984 9.20006H14.7966C14.1585 9.20006 13.3263 9.20006 13.07 9.28976C12.6104 9.45058 12.249 9.81193 12.0882 10.2715C11.9984 10.5281 11.9984 10.8473 11.9984 11.4857V14.6H4.59844V7.19998Z" fill="white"/>
<path d="M7.99844 13.2C9.10301 13.2 9.99844 12.3045 9.99844 11.2C9.99844 10.0954 9.10301 9.19998 7.99844 9.19998C6.89387 9.19998 5.99844 10.0954 5.99844 11.2C5.99844 12.3045 6.89387 13.2 7.99844 13.2Z" fill="white"/>
</g>
</g>
</svg>
