<svg width="24" height="24" viewBox="0 0 24 24" fill="none" xmlns="http://www.w3.org/2000/svg">
<path d="M8.6 4.39999C8.6 4.06862 8.33137 3.79999 8 3.79999C7.66863 3.79999 7.4 4.06862 7.4 4.39999V5.66339C6.24854 5.7556 5.49262 5.98189 4.93726 6.53725C4.3819 7.0926 4.15561 7.84852 4.06341 8.99999H19.9366C19.8444 7.84852 19.6181 7.0926 19.0627 6.53725C18.5074 5.98189 17.7515 5.7556 16.6 5.66339V4.39999C16.6 4.06862 16.3314 3.79999 16 3.79999C15.6686 3.79999 15.4 4.06862 15.4 4.39999V5.61031C14.8678 5.59999 14.2712 5.59999 13.6 5.59999H10.4C9.72877 5.59999 9.13221 5.59999 8.6 5.61031V4.39999Z" fill="white"/>
<path fill-rule="evenodd" clip-rule="evenodd" d="M4 12C4 11.3288 4 10.7322 4.01032 10.2H19.9897C20 10.7322 20 11.3288 20 12V13.6C20 16.617 20 18.1255 19.0627 19.0627C18.1255 20 16.617 20 13.6 20H10.4C7.38301 20 5.87452 20 4.93726 19.0627C4 18.1255 4 16.617 4 13.6V12ZM16 13.6C16.4418 13.6 16.8 13.2418 16.8 12.8C16.8 12.3582 16.4418 12 16 12C15.5582 12 15.2 12.3582 15.2 12.8C15.2 13.2418 15.5582 13.6 16 13.6ZM16 16.8C16.4418 16.8 16.8 16.4418 16.8 16C16.8 15.5582 16.4418 15.2 16 15.2C15.5582 15.2 15.2 15.5582 15.2 16C15.2 16.4418 15.5582 16.8 16 16.8ZM12.8 12.8C12.8 13.2418 12.4418 13.6 12 13.6C11.5582 13.6 11.2 13.2418 11.2 12.8C11.2 12.3582 11.5582 12 12 12C12.4418 12 12.8 12.3582 12.8 12.8ZM12.8 16C12.8 16.4418 12.4418 16.8 12 16.8C11.5582 16.8 11.2 16.4418 11.2 16C11.2 15.5582 11.5582 15.2 12 15.2C12.4418 15.2 12.8 15.5582 12.8 16ZM8 13.6C8.44183 13.6 8.8 13.2418 8.8 12.8C8.8 12.3582 8.44183 12 8 12C7.55817 12 7.2 12.3582 7.2 12.8C7.2 13.2418 7.55817 13.6 8 13.6ZM8 16.8C8.44183 16.8 8.8 16.4418 8.8 16C8.8 15.5582 8.44183 15.2 8 15.2C7.55817 15.2 7.2 15.5582 7.2 16C7.2 16.4418 7.55817 16.8 8 16.8Z" fill="white"/>
</svg>
