<svg width="31" height="31" viewBox="0 0 31 31" fill="none" xmlns="http://www.w3.org/2000/svg">
<g id="Frame">
<g id="Group">
<g id="Layer 20">
<path id="Vector" d="M29.1569 11.8489C28.498 9.26836 27.1282 6.92448 25.2033 5.08383C23.2784 3.24318 20.8755 1.97963 18.2681 1.43688C15.6607 0.894133 12.9532 1.09397 10.4537 2.01366C7.95421 2.93335 5.76294 4.53598 4.12911 6.63931C2.49528 8.74263 1.48446 11.2622 1.21161 13.9115C0.938753 16.5609 1.41482 19.2336 2.58566 21.6258C3.7565 24.0179 5.57513 26.0336 7.83472 27.4434C10.0943 28.8532 12.7042 29.6007 15.3675 29.6008C15.8328 29.6023 16.2978 29.5783 16.7604 29.5287C16.9586 29.4726 17.14 29.3687 17.2887 29.2261L29.0512 12.4397C29.1535 12.2608 29.1909 12.0521 29.1569 11.8489ZM17.0726 26.9975C17.0126 26.4858 16.9822 25.971 16.9813 25.4558C16.9715 22.5631 17.9484 19.7536 19.7507 17.4911C21.5531 15.2286 24.0731 13.6483 26.8947 13.0112L17.0726 26.9975ZM25.2953 11.9546L22.9418 9.60592C22.8039 9.47659 22.6218 9.40462 22.4327 9.40462C22.2436 9.40462 22.0616 9.47659 21.9236 9.60592L15.9439 15.5808L13.7153 13.3522C13.5811 13.2231 13.402 13.151 13.2158 13.151C13.0295 13.151 12.8505 13.2231 12.7163 13.3522L4.07088 21.3348C3.24964 19.7676 2.76262 18.047 2.64063 16.2819C2.51863 14.5168 2.76433 12.7456 3.36216 11.0803C3.95999 9.41503 4.89695 7.89197 6.11375 6.60748C7.33056 5.32299 8.80072 4.30503 10.4312 3.61802C12.0617 2.931 13.8171 2.58987 15.5862 2.61623C17.3553 2.64258 19.0997 3.03584 20.7091 3.77112C22.3184 4.5064 23.7576 5.5677 24.9356 6.88786C26.1136 8.20803 27.0047 9.75832 27.5527 11.4407C26.7876 11.5506 26.0326 11.7225 25.2953 11.9546Z" fill="white"/>
<path id="Vector_2" d="M15.3682 10.3936C16.8271 10.3936 18.0099 9.21093 18.0099 7.752C18.0099 6.29306 16.8271 5.11035 15.3682 5.11035C13.9093 5.11035 12.7266 6.29306 12.7266 7.752C12.7266 9.21093 13.9093 10.3936 15.3682 10.3936Z" fill="white"/>
</g>
</g>
</g>
</svg>
