<svg width="130" height="50" viewBox="0 0 130 50" fill="none" xmlns="http://www.w3.org/2000/svg">
<g id="Group 341">
<g id="Group 338">
<circle id="Ellipse 51" cx="105" cy="25" r="25" fill="white"/>
<path id="Vector 61" d="M97 24.25C96.5858 24.25 96.25 24.5858 96.25 25C96.25 25.4142 96.5858 25.75 97 25.75V24.25ZM112.53 25.5303C112.823 25.2374 112.823 24.7626 112.53 24.4697L107.757 19.6967C107.464 19.4038 106.99 19.4038 106.697 19.6967C106.404 19.9896 106.404 20.4645 106.697 20.7574L110.939 25L106.697 29.2426C106.404 29.5355 106.404 30.0104 106.697 30.3033C106.99 30.5962 107.464 30.5962 107.757 30.3033L112.53 25.5303ZM97 25.75H112V24.25H97V25.75Z" fill="#121212"/>
</g>
<g id="Group 339">
<circle id="Ellipse 50" cx="25" cy="25" r="25" fill="white"/>
<path id="Vector 62" d="M32 24.25C32.4142 24.25 32.75 24.5858 32.75 25C32.75 25.4142 32.4142 25.75 32 25.75V24.25ZM16.4697 25.5303C16.1768 25.2374 16.1768 24.7626 16.4697 24.4697L21.2426 19.6967C21.5355 19.4038 22.0104 19.4038 22.3033 19.6967C22.5962 19.9896 22.5962 20.4645 22.3033 20.7574L18.0607 25L22.3033 29.2426C22.5962 29.5355 22.5962 30.0104 22.3033 30.3033C22.0104 30.5962 21.5355 30.5962 21.2426 30.3033L16.4697 25.5303ZM32 25.75H17V24.25H32V25.75Z" fill="#121212"/>
</g>
</g>
</svg>
