<svg width="24" height="24" viewBox="0 0 24 24" fill="none" xmlns="http://www.w3.org/2000/svg">
<path d="M19.2008 15.8633V11.3299C19.2008 10.495 19.2008 10.0776 18.9743 9.76332C18.7913 9.50946 18.4977 9.37453 17.9741 9.19287C17.867 10.4778 17.4415 11.7901 16.7732 12.9386C15.995 14.2759 14.8395 15.4715 13.3584 16.1176C12.4952 16.4942 11.5064 16.4942 10.6432 16.1176C9.16209 15.4715 8.00653 14.2759 7.22837 12.9386C6.72147 12.0674 6.35422 11.1021 6.15968 10.1259C5.85364 10.0808 5.61878 10.104 5.41611 10.217C5.33525 10.2622 5.25988 10.3165 5.19151 10.3789C4.80078 10.7358 4.80078 11.3994 4.80078 12.7265V16.6702C4.80078 17.5051 4.80078 17.9225 5.02729 18.2368C5.2538 18.5511 5.64981 18.6831 6.44183 18.9471L6.74869 19.0494L6.7487 19.0494C8.01028 19.4699 8.64107 19.6802 9.28628 19.6814C9.48062 19.6817 9.67472 19.668 9.86705 19.6401C10.5056 19.5476 11.1055 19.2477 12.3053 18.6478C13.2247 18.1881 13.6844 17.9582 14.1728 17.8516C14.3442 17.8142 14.5178 17.788 14.6927 17.7734C15.1908 17.7317 15.6933 17.8155 16.6985 17.983C17.7172 18.1528 18.2265 18.2377 18.5984 18.0241C18.7247 17.9516 18.8367 17.8567 18.929 17.744C19.2008 17.4123 19.2008 16.896 19.2008 15.8633Z" fill="white"/>
<path fill-rule="evenodd" clip-rule="evenodd" d="M11.9992 4C9.34825 4 7.19922 6.04169 7.19922 8.56024C7.19922 11.0591 8.73121 13.975 11.1215 15.0177C11.6787 15.2608 12.3198 15.2608 12.877 15.0177C15.2672 13.975 16.7992 11.0591 16.7992 8.56024C16.7992 6.04169 14.6502 4 11.9992 4ZM11.9992 10.4C12.8829 10.4 13.5992 9.68366 13.5992 8.8C13.5992 7.91634 12.8829 7.2 11.9992 7.2C11.1156 7.2 10.3992 7.91634 10.3992 8.8C10.3992 9.68366 11.1156 10.4 11.9992 10.4Z" fill="white"/>
</svg>
