<svg width="707" height="1194" viewBox="0 0 707 1194" fill="none" xmlns="http://www.w3.org/2000/svg">
<g opacity="0.1">
<path fill-rule="evenodd" clip-rule="evenodd" d="M895.5 597C895.5 761.857 761.857 895.5 597 895.5C432.143 895.5 298.5 761.857 298.5 597C298.5 432.143 432.143 298.5 597 298.5C761.857 298.5 895.5 432.143 895.5 597ZM893.51 597C893.51 760.758 760.758 893.51 597 893.51C433.242 893.51 300.49 760.758 300.49 597C300.49 433.242 433.242 300.49 597 300.49C760.758 300.49 893.51 433.242 893.51 597Z" fill="url(#paint0_linear_911_3633)"/>
<path fill-rule="evenodd" clip-rule="evenodd" d="M597 995C816.809 995 995 816.809 995 597C995 377.191 816.809 199 597 199C377.191 199 199 377.191 199 597C199 816.809 377.191 995 597 995ZM597 993.01C815.71 993.01 993.01 815.71 993.01 597C993.01 378.29 815.71 200.99 597 200.99C378.29 200.99 200.99 378.29 200.99 597C200.99 815.71 378.29 993.01 597 993.01Z" fill="url(#paint1_linear_911_3633)"/>
<path fill-rule="evenodd" clip-rule="evenodd" d="M1094.5 597C1094.5 871.762 871.762 1094.5 597 1094.5C322.238 1094.5 99.5 871.762 99.5 597C99.5 322.238 322.238 99.5 597 99.5C871.762 99.5 1094.5 322.238 1094.5 597ZM1092.51 597C1092.51 870.663 870.663 1092.51 597 1092.51C323.337 1092.51 101.49 870.663 101.49 597C101.49 323.337 323.337 101.49 597 101.49C870.663 101.49 1092.51 323.337 1092.51 597Z" fill="url(#paint2_linear_911_3633)"/>
<path fill-rule="evenodd" clip-rule="evenodd" d="M1194 597C1194 926.714 926.714 1194 597 1194C267.286 1194 0 926.714 0 597C0 267.286 267.286 0 597 0C926.714 0 1194 267.286 1194 597ZM1192.01 597C1192.01 925.615 925.615 1192.01 597 1192.01C268.385 1192.01 1.99 925.615 1.99 597C1.99 268.385 268.385 1.99 597 1.99C925.615 1.99 1192.01 268.385 1192.01 597Z" fill="url(#paint3_linear_911_3633)"/>
</g>
<defs>
<linearGradient id="paint0_linear_911_3633" x1="-436.5" y1="532" x2="1127" y2="568.5" gradientUnits="userSpaceOnUse">
<stop stop-color="white"/>
<stop offset="1" stop-color="white" stop-opacity="0"/>
</linearGradient>
<linearGradient id="paint1_linear_911_3633" x1="-436.5" y1="532" x2="1127" y2="568.5" gradientUnits="userSpaceOnUse">
<stop stop-color="white"/>
<stop offset="1" stop-color="white" stop-opacity="0"/>
</linearGradient>
<linearGradient id="paint2_linear_911_3633" x1="-436.5" y1="532" x2="1127" y2="568.5" gradientUnits="userSpaceOnUse">
<stop stop-color="white"/>
<stop offset="1" stop-color="white" stop-opacity="0"/>
</linearGradient>
<linearGradient id="paint3_linear_911_3633" x1="-436.5" y1="532" x2="1127" y2="568.5" gradientUnits="userSpaceOnUse">
<stop stop-color="white"/>
<stop offset="1" stop-color="white" stop-opacity="0"/>
</linearGradient>
</defs>
</svg>
